<?xml version="1.0" encoding="UTF-8" standalone="no"?><!DOCTYPE svg PUBLIC "-//W3C//DTD SVG 1.1//EN" "http://www.w3.org/Graphics/SVG/1.1/DTD/svg11.dtd"><svg width="100%" height="100%" viewBox="0 0 498 239" version="1.1" xmlns="http://www.w3.org/2000/svg" xmlns:xlink="http://www.w3.org/1999/xlink" xml:space="preserve" style="fill-rule:evenodd;clip-rule:evenodd;stroke-linejoin:round;stroke-miterlimit:1.41421;"><g><g transform="matrix(0.797685,9.62965e-35,1.92593e-34,0.797685,-24.051,23.2171)"><path d="M188.042,192.97l-8.936,0l0,8.862l-4.277,0l0,-21.328l14.707,0l0,3.296l-10.43,0l0,5.874l8.936,0l0,3.296Z" style="fill:#fff;fill-rule:nonzero;"/><path d="M210.587,193.087c0,2.617 -0.828,4.78 -2.483,6.489c-1.656,1.709 -3.807,2.564 -6.453,2.564c-2.627,0 -4.761,-0.855 -6.401,-2.564c-1.641,-1.709 -2.461,-3.872 -2.461,-6.489l0,-3.838c0,-2.608 0.818,-4.768 2.453,-6.482c1.636,-1.714 3.767,-2.571 6.394,-2.571c2.647,0 4.8,0.857 6.46,2.571c1.66,1.714 2.491,3.874 2.491,6.482l0,3.838Zm-4.278,-3.867c0,-1.661 -0.415,-3.023 -1.245,-4.087c-0.83,-1.065 -1.973,-1.597 -3.428,-1.597c-1.455,0 -2.583,0.53 -3.383,1.589c-0.801,1.06 -1.202,2.425 -1.202,4.095l0,3.867c0,1.689 0.406,3.066 1.216,4.131c0.811,1.064 1.939,1.596 3.384,1.596c1.465,0 2.607,-0.532 3.428,-1.596c0.82,-1.065 1.23,-2.442 1.23,-4.131l0,-3.867Z" style="fill:#fff;fill-rule:nonzero;"/><path d="M219.494,193.307l0,8.525l-4.278,0l0,-21.328l8.042,0c2.432,0 4.334,0.554 5.706,1.662c1.372,1.109 2.058,2.654 2.058,4.637c0,1.103 -0.288,2.05 -0.864,2.841c-0.576,0.791 -1.421,1.431 -2.534,1.919c1.259,0.371 2.165,0.992 2.717,1.861c0.552,0.869 0.828,1.943 0.828,3.222l0,1.568c0,0.595 0.08,1.218 0.241,1.867c0.161,0.65 0.437,1.131 0.828,1.443l0,0.308l-4.409,0c-0.391,-0.313 -0.645,-0.835 -0.762,-1.567c-0.117,-0.733 -0.176,-1.426 -0.176,-2.081l0,-1.508c0,-1.065 -0.29,-1.892 -0.871,-2.483c-0.581,-0.591 -1.399,-0.886 -2.454,-0.886l-4.072,0Zm0,-3.296l3.691,0c1.201,0 2.097,-0.254 2.688,-0.762c0.591,-0.508 0.886,-1.26 0.886,-2.256c0,-0.977 -0.295,-1.753 -0.886,-2.329c-0.591,-0.576 -1.462,-0.864 -2.615,-0.864l-3.764,0l0,6.211Z" style="fill:#fff;fill-rule:nonzero;"/><path d="M241.921,180.504l5.435,15.718l0.088,0l5.478,-15.718l5.596,0l0,21.328l-4.277,0l0,-6.357l0.41,-9.419l-0.088,-0.015l-5.713,15.791l-2.871,0l-5.684,-15.732l-0.087,0.014l0.41,9.361l0,6.357l-4.278,0l0,-21.328l5.581,0Z" style="fill:#fff;fill-rule:nonzero;"/><path d="M275.248,197.232l-7.486,0l-1.45,4.6l-4.321,0l7.339,-21.328l4.379,0l7.31,21.328l-4.321,0l-1.45,-4.6Zm-6.431,-3.354l5.376,0l-2.637,-8.379l-0.088,0l-2.651,8.379Z" style="fill:#fff;fill-rule:nonzero;"/><path d="M299.038,183.8l-6.036,0l0,18.032l-4.277,0l0,-18.032l-6.006,0l0,-3.296l16.319,0l0,3.296Z" style="fill:#fff;fill-rule:nonzero;"/><rect x="302.979" y="180.504" width="4.277" height="21.328" style="fill:#fff;fill-rule:nonzero;"/><path d="M329.962,193.087c0,2.617 -0.827,4.78 -2.483,6.489c-1.655,1.709 -3.806,2.564 -6.452,2.564c-2.627,0 -4.761,-0.855 -6.402,-2.564c-1.64,-1.709 -2.461,-3.872 -2.461,-6.489l0,-3.838c0,-2.608 0.818,-4.768 2.454,-6.482c1.636,-1.714 3.767,-2.571 6.394,-2.571c2.647,0 4.8,0.857 6.46,2.571c1.66,1.714 2.49,3.874 2.49,6.482l0,3.838Zm-4.277,-3.867c0,-1.661 -0.415,-3.023 -1.245,-4.087c-0.83,-1.065 -1.973,-1.597 -3.428,-1.597c-1.455,0 -2.583,0.53 -3.384,1.589c-0.8,1.06 -1.201,2.425 -1.201,4.095l0,3.867c0,1.689 0.405,3.066 1.216,4.131c0.81,1.064 1.938,1.596 3.384,1.596c1.465,0 2.607,-0.532 3.427,-1.596c0.821,-1.065 1.231,-2.442 1.231,-4.131l0,-3.867Z" style="fill:#fff;fill-rule:nonzero;"/><path d="M351.833,201.832l-4.262,0l-8.614,-14.575l-0.088,0.014l0,14.561l-4.277,0l0,-21.328l4.277,0l8.614,14.56l0.088,-0.014l0,-14.546l4.262,0l0,21.328Z" style="fill:#fff;fill-rule:nonzero;"/><path d="M370.16,194.098l0,7.734l-4.277,0l0,-21.328l8.496,0c2.451,0 4.38,0.625 5.786,1.875c1.407,1.25 2.11,2.895 2.11,4.936c0,2.041 -0.703,3.682 -2.11,4.922c-1.406,1.24 -3.335,1.861 -5.786,1.861l-4.219,0Zm0,-3.296l4.219,0c1.192,0 2.095,-0.325 2.71,-0.974c0.615,-0.65 0.923,-1.478 0.923,-2.483c0,-1.026 -0.305,-1.873 -0.916,-2.542c-0.61,-0.669 -1.516,-1.003 -2.717,-1.003l-4.219,0l0,7.002Z" style="fill:#fff;fill-rule:nonzero;"/><path d="M390.991,193.307l0,8.525l-4.277,0l0,-21.328l8.042,0c2.432,0 4.334,0.554 5.706,1.662c1.372,1.109 2.058,2.654 2.058,4.637c0,1.103 -0.288,2.05 -0.865,2.841c-0.576,0.791 -1.42,1.431 -2.534,1.919c1.26,0.371 2.166,0.992 2.718,1.861c0.551,0.869 0.827,1.943 0.827,3.222l0,1.568c0,0.595 0.081,1.218 0.242,1.867c0.161,0.65 0.437,1.131 0.828,1.443l0,0.308l-4.41,0c-0.39,-0.313 -0.644,-0.835 -0.761,-1.567c-0.118,-0.733 -0.176,-1.426 -0.176,-2.081l0,-1.508c0,-1.065 -0.291,-1.892 -0.872,-2.483c-0.581,-0.591 -1.399,-0.886 -2.453,-0.886l-4.073,0Zm0,-3.296l3.692,0c1.201,0 2.097,-0.254 2.688,-0.762c0.591,-0.508 0.886,-1.26 0.886,-2.256c0,-0.977 -0.295,-1.753 -0.886,-2.329c-0.591,-0.576 -1.463,-0.864 -2.615,-0.864l-3.765,0l0,6.211Z" style="fill:#fff;fill-rule:nonzero;"/><path d="M424.991,193.087c0,2.617 -0.827,4.78 -2.483,6.489c-1.655,1.709 -3.806,2.564 -6.452,2.564c-2.627,0 -4.761,-0.855 -6.402,-2.564c-1.64,-1.709 -2.46,-3.872 -2.46,-6.489l0,-3.838c0,-2.608 0.817,-4.768 2.453,-6.482c1.636,-1.714 3.767,-2.571 6.394,-2.571c2.647,0 4.8,0.857 6.46,2.571c1.66,1.714 2.49,3.874 2.49,6.482l0,3.838Zm-4.277,-3.867c0,-1.661 -0.415,-3.023 -1.245,-4.087c-0.83,-1.065 -1.973,-1.597 -3.428,-1.597c-1.455,0 -2.583,0.53 -3.384,1.589c-0.8,1.06 -1.201,2.425 -1.201,4.095l0,3.867c0,1.689 0.406,3.066 1.216,4.131c0.811,1.064 1.939,1.596 3.384,1.596c1.465,0 2.607,-0.532 3.428,-1.596c0.82,-1.065 1.23,-2.442 1.23,-4.131l0,-3.867Z" style="fill:#fff;fill-rule:nonzero;"/><path d="M442.834,192.97l-8.935,0l0,8.862l-4.278,0l0,-21.328l14.707,0l0,3.296l-10.429,0l0,5.874l8.935,0l0,3.296Z" style="fill:#fff;fill-rule:nonzero;"/><path d="M461.336,192.457l-8.833,0l0,6.094l10.327,0l0,3.281l-14.604,0l0,-21.328l14.575,0l0,3.296l-10.298,0l0,5.361l8.833,0l0,3.296Z" style="fill:#fff;fill-rule:nonzero;"/><path d="M478.256,196.266c0,-0.821 -0.291,-1.48 -0.872,-1.978c-0.581,-0.498 -1.599,-0.967 -3.054,-1.406c-2.539,-0.733 -4.458,-1.602 -5.757,-2.608c-1.299,-1.006 -1.948,-2.383 -1.948,-4.131c0,-1.748 0.745,-3.176 2.234,-4.284c1.489,-1.109 3.391,-1.663 5.706,-1.663c2.343,0 4.252,0.623 5.727,1.868c1.475,1.245 2.188,2.781 2.139,4.607l-0.03,0.088l-4.145,0c0,-0.987 -0.33,-1.785 -0.989,-2.395c-0.659,-0.611 -1.584,-0.916 -2.776,-0.916c-1.142,0 -2.026,0.254 -2.651,0.762c-0.625,0.508 -0.938,1.157 -0.938,1.948c0,0.723 0.335,1.316 1.004,1.78c0.669,0.464 1.824,0.954 3.464,1.472c2.354,0.654 4.136,1.519 5.347,2.593c1.211,1.074 1.816,2.485 1.816,4.233c0,1.826 -0.72,3.267 -2.16,4.322c-1.441,1.054 -3.343,1.582 -5.706,1.582c-2.324,0 -4.351,-0.599 -6.079,-1.795c-1.729,-1.196 -2.568,-2.873 -2.52,-5.032l0.03,-0.088l4.16,0c0,1.27 0.388,2.2 1.164,2.791c0.777,0.591 1.858,0.886 3.245,0.886c1.162,0 2.051,-0.239 2.666,-0.718c0.615,-0.478 0.923,-1.118 0.923,-1.918Z" style="fill:#fff;fill-rule:nonzero;"/><path d="M498.574,196.266c0,-0.821 -0.29,-1.48 -0.871,-1.978c-0.581,-0.498 -1.599,-0.967 -3.055,-1.406c-2.539,-0.733 -4.458,-1.602 -5.756,-2.608c-1.299,-1.006 -1.949,-2.383 -1.949,-4.131c0,-1.748 0.745,-3.176 2.234,-4.284c1.49,-1.109 3.391,-1.663 5.706,-1.663c2.344,0 4.253,0.623 5.727,1.868c1.475,1.245 2.188,2.781 2.139,4.607l-0.029,0.088l-4.146,0c0,-0.987 -0.329,-1.785 -0.989,-2.395c-0.659,-0.611 -1.584,-0.916 -2.775,-0.916c-1.143,0 -2.027,0.254 -2.652,0.762c-0.625,0.508 -0.937,1.157 -0.937,1.948c0,0.723 0.334,1.316 1.003,1.78c0.669,0.464 1.824,0.954 3.464,1.472c2.354,0.654 4.136,1.519 5.347,2.593c1.211,1.074 1.817,2.485 1.817,4.233c0,1.826 -0.721,3.267 -2.161,4.322c-1.44,1.054 -3.342,1.582 -5.706,1.582c-2.324,0 -4.35,-0.599 -6.079,-1.795c-1.728,-1.196 -2.568,-2.873 -2.519,-5.032l0.029,-0.088l4.16,0c0,1.27 0.388,2.2 1.165,2.791c0.776,0.591 1.858,0.886 3.244,0.886c1.162,0 2.051,-0.239 2.666,-0.718c0.616,-0.478 0.923,-1.118 0.923,-1.918Z" style="fill:#fff;fill-rule:nonzero;"/><rect x="507.643" y="180.504" width="4.277" height="21.328" style="fill:#fff;fill-rule:nonzero;"/><path d="M534.626,193.087c0,2.617 -0.828,4.78 -2.483,6.489c-1.655,1.709 -3.806,2.564 -6.453,2.564c-2.627,0 -4.76,-0.855 -6.401,-2.564c-1.641,-1.709 -2.461,-3.872 -2.461,-6.489l0,-3.838c0,-2.608 0.818,-4.768 2.454,-6.482c1.635,-1.714 3.767,-2.571 6.394,-2.571c2.646,0 4.8,0.857 6.46,2.571c1.66,1.714 2.49,3.874 2.49,6.482l0,3.838Zm-4.277,-3.867c0,-1.661 -0.415,-3.023 -1.246,-4.087c-0.83,-1.065 -1.972,-1.597 -3.427,-1.597c-1.455,0 -2.583,0.53 -3.384,1.589c-0.801,1.06 -1.201,2.425 -1.201,4.095l0,3.867c0,1.689 0.405,3.066 1.216,4.131c0.81,1.064 1.938,1.596 3.383,1.596c1.465,0 2.608,-0.532 3.428,-1.596c0.82,-1.065 1.231,-2.442 1.231,-4.131l0,-3.867Z" style="fill:#fff;fill-rule:nonzero;"/><path d="M556.497,201.832l-4.263,0l-8.613,-14.575l-0.088,0.014l0,14.561l-4.277,0l0,-21.328l4.277,0l8.613,14.56l0.088,-0.014l0,-14.546l4.263,0l0,21.328Z" style="fill:#fff;fill-rule:nonzero;"/><path d="M579.027,201.832l-4.262,0l-8.614,-14.575l-0.088,0.014l0,14.561l-4.277,0l0,-21.328l4.277,0l8.614,14.56l0.088,-0.014l0,-14.546l4.262,0l0,21.328Z" style="fill:#fff;fill-rule:nonzero;"/><path d="M597.427,192.457l-8.833,0l0,6.094l10.327,0l0,3.281l-14.605,0l0,-21.328l14.575,0l0,3.296l-10.297,0l0,5.361l8.833,0l0,3.296Z" style="fill:#fff;fill-rule:nonzero;"/><path d="M607.11,198.551l9.492,0l0,3.281l-13.769,0l0,-21.328l4.277,0l0,18.047Z" style="fill:#fff;fill-rule:nonzero;"/><path d="M624.631,198.551l9.492,0l0,3.281l-13.77,0l0,-21.328l4.278,0l0,18.047Z" style="fill:#fff;fill-rule:nonzero;"/><path d="M650.984,192.457l-8.833,0l0,6.094l10.327,0l0,3.281l-14.604,0l0,-21.328l14.575,0l0,3.296l-10.298,0l0,5.361l8.833,0l0,3.296Z" style="fill:#fff;fill-rule:nonzero;"/><path d="M174.829,231.832l0,-21.328l7.324,0c2.607,0 4.756,0.832 6.445,2.497c1.69,1.665 2.534,3.802 2.534,6.409l0,3.53c0,2.618 -0.844,4.754 -2.534,6.409c-1.689,1.655 -3.838,2.483 -6.445,2.483l-7.324,0Zm4.277,-18.032l0,14.751l2.827,0c1.533,0 2.735,-0.518 3.604,-1.553c0.869,-1.035 1.303,-2.388 1.303,-4.058l0,-3.559c0,-1.651 -0.434,-2.993 -1.303,-4.029c-0.869,-1.035 -2.071,-1.552 -3.604,-1.552l-2.827,0Z" style="fill:#fff;fill-rule:nonzero;"/><path d="M209.277,222.457l-8.833,0l0,6.094l10.327,0l0,3.281l-14.604,0l0,-21.328l14.575,0l0,3.296l-10.298,0l0,5.361l8.833,0l0,3.296Z" style="fill:#fff;fill-rule:nonzero;"/><path d="M222.31,226.163l0.264,1.157l0.087,0l0.249,-1.128l4.644,-15.688l4.512,0l-7.251,21.328l-4.395,0l-7.236,-21.328l4.512,0l4.614,15.659Z" style="fill:#fff;fill-rule:nonzero;"/><path d="M248.951,222.457l-8.833,0l0,6.094l10.327,0l0,3.281l-14.605,0l0,-21.328l14.576,0l0,3.296l-10.298,0l0,5.361l8.833,0l0,3.296Z" style="fill:#fff;fill-rule:nonzero;"/><path d="M259.024,228.551l9.493,0l0,3.281l-13.77,0l0,-21.328l4.277,0l0,18.047Z" style="fill:#fff;fill-rule:nonzero;"/><path d="M288.947,223.087c0,2.617 -0.828,4.78 -2.483,6.489c-1.656,1.709 -3.807,2.564 -6.453,2.564c-2.627,0 -4.761,-0.855 -6.401,-2.564c-1.641,-1.709 -2.461,-3.872 -2.461,-6.489l0,-3.838c0,-2.608 0.818,-4.768 2.453,-6.482c1.636,-1.714 3.767,-2.571 6.394,-2.571c2.647,0 4.8,0.857 6.46,2.571c1.66,1.714 2.491,3.874 2.491,6.482l0,3.838Zm-4.278,-3.867c0,-1.661 -0.415,-3.023 -1.245,-4.087c-0.83,-1.065 -1.973,-1.597 -3.428,-1.597c-1.455,0 -2.583,0.53 -3.383,1.589c-0.801,1.06 -1.202,2.425 -1.202,4.095l0,3.867c0,1.689 0.406,3.066 1.216,4.131c0.811,1.064 1.939,1.596 3.384,1.596c1.465,0 2.607,-0.532 3.428,-1.596c0.82,-1.065 1.23,-2.442 1.23,-4.131l0,-3.867Z" style="fill:#fff;fill-rule:nonzero;"/><path d="M298.244,224.098l0,7.734l-4.278,0l0,-21.328l8.496,0c2.452,0 4.38,0.625 5.787,1.875c1.406,1.25 2.109,2.895 2.109,4.936c0,2.041 -0.703,3.682 -2.109,4.922c-1.407,1.24 -3.335,1.861 -5.787,1.861l-4.218,0Zm0,-3.296l4.218,0c1.192,0 2.095,-0.325 2.71,-0.974c0.616,-0.65 0.923,-1.478 0.923,-2.483c0,-1.026 -0.305,-1.873 -0.915,-2.542c-0.611,-0.669 -1.516,-1.003 -2.718,-1.003l-4.218,0l0,7.002Z" style="fill:#fff;fill-rule:nonzero;"/><path d="M319.465,224.098l0,7.734l-4.278,0l0,-21.328l8.496,0c2.452,0 4.38,0.625 5.787,1.875c1.406,1.25 2.109,2.895 2.109,4.936c0,2.041 -0.703,3.682 -2.109,4.922c-1.407,1.24 -3.335,1.861 -5.787,1.861l-4.218,0Zm0,-3.296l4.218,0c1.192,0 2.095,-0.325 2.71,-0.974c0.616,-0.65 0.923,-1.478 0.923,-2.483c0,-1.026 -0.305,-1.873 -0.915,-2.542c-0.611,-0.669 -1.516,-1.003 -2.718,-1.003l-4.218,0l0,7.002Z" style="fill:#fff;fill-rule:nonzero;"/><path d="M349.519,222.457l-8.833,0l0,6.094l10.327,0l0,3.281l-14.605,0l0,-21.328l14.576,0l0,3.296l-10.298,0l0,5.361l8.833,0l0,3.296Z" style="fill:#fff;fill-rule:nonzero;"/><path d="M372.19,210.504l0,14.15c0,2.393 -0.791,4.238 -2.373,5.537c-1.582,1.299 -3.652,1.949 -6.211,1.949c-2.549,0 -4.607,-0.65 -6.174,-1.949c-1.568,-1.299 -2.351,-3.144 -2.351,-5.537l0,-14.15l4.292,0l0,14.15c0,1.406 0.376,2.459 1.128,3.157c0.751,0.698 1.787,1.047 3.105,1.047c1.338,0 2.388,-0.346 3.149,-1.04c0.762,-0.693 1.143,-1.748 1.143,-3.164l0,-14.15l4.292,0Z" style="fill:#fff;fill-rule:nonzero;"/><path d="M381.883,223.307l0,8.525l-4.278,0l0,-21.328l8.042,0c2.432,0 4.334,0.554 5.706,1.662c1.372,1.109 2.058,2.654 2.058,4.637c0,1.103 -0.288,2.05 -0.864,2.841c-0.576,0.791 -1.421,1.431 -2.534,1.919c1.259,0.371 2.165,0.992 2.717,1.861c0.552,0.869 0.827,1.943 0.827,3.222l0,1.568c0,0.595 0.081,1.218 0.242,1.867c0.161,0.65 0.437,1.131 0.828,1.443l0,0.308l-4.409,0c-0.391,-0.313 -0.645,-0.835 -0.762,-1.567c-0.117,-0.733 -0.176,-1.426 -0.176,-2.081l0,-1.508c0,-1.065 -0.29,-1.892 -0.871,-2.483c-0.581,-0.591 -1.399,-0.886 -2.454,-0.886l-4.072,0Zm0,-3.296l3.691,0c1.201,0 2.097,-0.254 2.688,-0.762c0.591,-0.508 0.886,-1.26 0.886,-2.256c0,-0.977 -0.295,-1.753 -0.886,-2.329c-0.591,-0.576 -1.462,-0.864 -2.615,-0.864l-3.764,0l0,6.211Z" style="fill:#fff;fill-rule:nonzero;"/><path d="M425.145,225.123l0.088,0l3.047,-14.619l4.175,0l-4.981,21.328l-3.97,0l-3.911,-14.077l-0.088,0l-3.911,14.077l-3.969,0l-4.996,-21.328l4.19,0l3.061,14.604l0.088,0.015l3.999,-14.619l3.15,0l4.028,14.619Z" style="fill:#fff;fill-rule:nonzero;"/><path d="M449.647,222.457l-8.833,0l0,6.094l10.327,0l0,3.281l-14.604,0l0,-21.328l14.575,0l0,3.296l-10.298,0l0,5.361l8.833,0l0,3.296Z" style="fill:#fff;fill-rule:nonzero;"/><path d="M455.443,231.832l0,-21.328l7.208,0c2.509,0 4.467,0.488 5.874,1.465c1.406,0.976 2.109,2.436 2.109,4.38c0,0.986 -0.261,1.867 -0.784,2.644c-0.522,0.776 -1.282,1.359 -2.278,1.75c1.28,0.273 2.239,0.859 2.879,1.758c0.639,0.898 0.959,1.938 0.959,3.12c0,2.041 -0.674,3.586 -2.021,4.636c-1.348,1.05 -3.257,1.575 -5.728,1.575l-8.218,0Zm4.278,-9.434l0,6.153l3.94,0c1.133,0 1.997,-0.247 2.593,-0.74c0.596,-0.493 0.894,-1.223 0.894,-2.19c0,-1.045 -0.254,-1.843 -0.762,-2.395c-0.508,-0.552 -1.309,-0.828 -2.402,-0.828l-4.263,0Zm0,-2.959l3.076,0c1.143,0 2.021,-0.234 2.637,-0.703c0.615,-0.469 0.923,-1.152 0.923,-2.051c0,-0.986 -0.31,-1.713 -0.931,-2.182c-0.62,-0.469 -1.545,-0.703 -2.775,-0.703l-2.93,0l0,5.639Z" style="fill:#fff;fill-rule:nonzero;"/><path d="M484.424,226.09c0,-1.153 0.317,-2.146 0.952,-2.981c0.635,-0.835 1.601,-1.707 2.9,-2.615c-0.664,-0.898 -1.16,-1.719 -1.487,-2.461c-0.327,-0.742 -0.49,-1.499 -0.49,-2.27c0,-1.69 0.527,-3.04 1.582,-4.051c1.054,-1.01 2.465,-1.516 4.233,-1.516c1.553,0 2.815,0.481 3.787,1.443c0.971,0.962 1.457,2.127 1.457,3.494c0,0.957 -0.239,1.831 -0.718,2.622c-0.478,0.791 -1.132,1.484 -1.962,2.08l-1.363,0.967l4.043,4.716c0.352,-0.585 0.625,-1.22 0.82,-1.904c0.196,-0.683 0.293,-1.406 0.293,-2.168l3.194,0c0,1.348 -0.166,2.588 -0.498,3.721c-0.332,1.133 -0.84,2.139 -1.524,3.017l3.047,3.575l-0.029,0.073l-4.746,0l-1.128,-1.304c-0.83,0.537 -1.685,0.94 -2.564,1.209c-0.878,0.268 -1.821,0.403 -2.827,0.403c-2.129,0 -3.823,-0.56 -5.083,-1.678c-1.26,-1.118 -1.889,-2.575 -1.889,-4.372Zm7.192,2.768c0.518,0 1.035,-0.066 1.553,-0.197c0.517,-0.132 1.015,-0.33 1.494,-0.594l-4.395,-5.097l-0.278,0.19c-0.498,0.469 -0.837,0.925 -1.018,1.37c-0.181,0.444 -0.271,0.891 -0.271,1.34c0,0.869 0.269,1.584 0.806,2.146c0.537,0.562 1.24,0.842 2.109,0.842Zm-1.494,-13.139c0,0.42 0.105,0.852 0.315,1.296c0.21,0.444 0.525,0.935 0.945,1.472l1.259,-0.82c0.547,-0.352 0.916,-0.713 1.106,-1.084c0.191,-0.371 0.286,-0.776 0.286,-1.216c0,-0.488 -0.178,-0.923 -0.535,-1.304c-0.356,-0.38 -0.822,-0.571 -1.399,-0.571c-0.634,0 -1.123,0.212 -1.464,0.637c-0.342,0.425 -0.513,0.955 -0.513,1.59Z" style="fill:#fff;fill-rule:nonzero;"/><path d="M520.347,228.551l9.492,0l0,3.281l-13.769,0l0,-21.328l4.277,0l0,18.047Z" style="fill:#fff;fill-rule:nonzero;"/><path d="M550.269,223.087c0,2.617 -0.827,4.78 -2.483,6.489c-1.655,1.709 -3.806,2.564 -6.452,2.564c-2.627,0 -4.761,-0.855 -6.402,-2.564c-1.64,-1.709 -2.461,-3.872 -2.461,-6.489l0,-3.838c0,-2.608 0.818,-4.768 2.454,-6.482c1.636,-1.714 3.767,-2.571 6.394,-2.571c2.647,0 4.8,0.857 6.46,2.571c1.66,1.714 2.49,3.874 2.49,6.482l0,3.838Zm-4.277,-3.867c0,-1.661 -0.415,-3.023 -1.245,-4.087c-0.83,-1.065 -1.973,-1.597 -3.428,-1.597c-1.455,0 -2.583,0.53 -3.384,1.589c-0.8,1.06 -1.201,2.425 -1.201,4.095l0,3.867c0,1.689 0.405,3.066 1.216,4.131c0.81,1.064 1.938,1.596 3.384,1.596c1.465,0 2.607,-0.532 3.427,-1.596c0.821,-1.065 1.231,-2.442 1.231,-4.131l0,-3.867Z" style="fill:#fff;fill-rule:nonzero;"/><path d="M571.666,228.917c-0.635,0.84 -1.623,1.587 -2.966,2.241c-1.343,0.654 -3.04,0.982 -5.091,0.982c-2.607,0 -4.736,-0.811 -6.386,-2.432c-1.651,-1.621 -2.476,-3.726 -2.476,-6.314l0,-4.453c0,-2.578 0.794,-4.68 2.381,-6.306c1.586,-1.626 3.63,-2.439 6.13,-2.439c2.598,0 4.587,0.633 5.969,1.897c1.382,1.265 2.088,2.927 2.117,4.988l-0.029,0.088l-4.029,0c-0.078,-1.133 -0.439,-2.029 -1.084,-2.688c-0.644,-0.659 -1.587,-0.989 -2.827,-0.989c-1.309,0 -2.363,0.505 -3.164,1.516c-0.801,1.011 -1.201,2.312 -1.201,3.904l0,4.482c0,1.622 0.415,2.937 1.245,3.948c0.83,1.011 1.948,1.516 3.354,1.516c0.997,0 1.797,-0.102 2.403,-0.307c0.605,-0.205 1.064,-0.459 1.377,-0.762l0,-3.955l-3.78,0l0,-2.959l8.057,0l0,8.042Z" style="fill:#fff;fill-rule:nonzero;"/><rect x="577.287" y="210.504" width="4.277" height="21.328" style="fill:#fff;fill-rule:nonzero;"/><path d="M603.605,224.581l0.029,0.088c0.04,2.295 -0.661,4.114 -2.102,5.456c-1.44,1.343 -3.44,2.015 -5.998,2.015c-2.568,0 -4.653,-0.826 -6.255,-2.476c-1.602,-1.65 -2.402,-3.774 -2.402,-6.372l0,-4.234c0,-2.587 0.781,-4.711 2.343,-6.372c1.563,-1.66 3.594,-2.49 6.094,-2.49c2.637,0 4.697,0.676 6.182,2.029c1.484,1.353 2.207,3.196 2.168,5.53l-0.03,0.088l-4.16,0c0,-1.407 -0.337,-2.483 -1.01,-3.23c-0.674,-0.747 -1.724,-1.121 -3.15,-1.121c-1.279,0 -2.295,0.52 -3.047,1.56c-0.752,1.04 -1.128,2.366 -1.128,3.977l0,4.263c0,1.631 0.396,2.966 1.187,4.006c0.791,1.04 1.86,1.56 3.208,1.56c1.338,0 2.327,-0.359 2.966,-1.076c0.64,-0.718 0.96,-1.785 0.96,-3.201l4.145,0Z" style="fill:#fff;fill-rule:nonzero;"/><rect x="608.625" y="210.504" width="4.277" height="21.328" style="fill:#fff;fill-rule:nonzero;"/><path d="M631.955,222.457l-8.833,0l0,6.094l10.328,0l0,3.281l-14.605,0l0,-21.328l14.575,0l0,3.296l-10.298,0l0,5.361l8.833,0l0,3.296Z" style="fill:#fff;fill-rule:nonzero;"/><path d="M642.029,228.551l9.492,0l0,3.281l-13.769,0l0,-21.328l4.277,0l0,18.047Z" style="fill:#fff;fill-rule:nonzero;"/></g><path d="M122.702,233.745l-4.752,0l0,4.713l-2.275,0l0,-11.342l7.821,0l0,1.752l-5.546,0l0,3.124l4.752,0l0,1.753Z" style="fill:#fff;fill-rule:nonzero;"/><path d="M134.691,233.807c0,1.392 -0.44,2.542 -1.321,3.451c-0.88,0.909 -2.024,1.363 -3.431,1.363c-1.397,0 -2.532,-0.454 -3.404,-1.363c-0.873,-0.909 -1.309,-2.059 -1.309,-3.451l0,-2.041c0,-1.386 0.435,-2.535 1.305,-3.447c0.87,-0.911 2.003,-1.367 3.4,-1.367c1.408,0 2.553,0.456 3.436,1.367c0.882,0.912 1.324,2.061 1.324,3.447l0,2.041Zm-2.275,-2.056c0,-0.883 -0.221,-1.608 -0.662,-2.174c-0.441,-0.566 -1.049,-0.849 -1.823,-0.849c-0.774,0 -1.373,0.282 -1.799,0.845c-0.426,0.564 -0.639,1.29 -0.639,2.178l0,2.056c0,0.899 0.215,1.631 0.646,2.197c0.432,0.566 1.031,0.849 1.8,0.849c0.779,0 1.387,-0.283 1.823,-0.849c0.436,-0.566 0.654,-1.298 0.654,-2.197l0,-2.056Z" style="fill:#fff;fill-rule:nonzero;"/><path d="M139.428,233.924l0,4.534l-2.275,0l0,-11.342l4.277,0c1.293,0 2.304,0.294 3.034,0.884c0.729,0.589 1.094,1.411 1.094,2.465c0,0.587 -0.153,1.091 -0.459,1.512c-0.307,0.42 -0.756,0.76 -1.348,1.02c0.67,0.197 1.152,0.527 1.445,0.989c0.293,0.463 0.44,1.034 0.44,1.714l0,0.834c0,0.317 0.043,0.648 0.129,0.993c0.085,0.345 0.232,0.601 0.44,0.767l0,0.164l-2.345,0c-0.208,-0.166 -0.343,-0.444 -0.405,-0.834c-0.062,-0.389 -0.094,-0.758 -0.094,-1.106l0,-0.802c0,-0.566 -0.154,-1.006 -0.463,-1.321c-0.309,-0.314 -0.744,-0.471 -1.305,-0.471l-2.165,0Zm0,-1.753l1.963,0c0.638,0 1.115,-0.135 1.429,-0.405c0.314,-0.27 0.471,-0.67 0.471,-1.199c0,-0.52 -0.157,-0.933 -0.471,-1.239c-0.314,-0.306 -0.778,-0.46 -1.39,-0.46l-2.002,0l0,3.303Z" style="fill:#fff;fill-rule:nonzero;"/><path d="M151.354,227.116l2.89,8.358l0.047,0l2.914,-8.358l2.975,0l0,11.342l-2.274,0l0,-3.381l0.218,-5.009l-0.047,-0.008l-3.038,8.398l-1.527,0l-3.022,-8.367l-0.047,0.008l0.218,4.978l0,3.381l-2.275,0l0,-11.342l2.968,0Z" style="fill:#fff;fill-rule:nonzero;"/><path d="M169.077,236.012l-3.981,0l-0.771,2.446l-2.298,0l3.903,-11.342l2.329,0l3.887,11.342l-2.298,0l-0.771,-2.446Zm-3.42,-1.784l2.859,0l-1.402,-4.456l-0.047,0l-1.41,4.456Z" style="fill:#fff;fill-rule:nonzero;"/><path d="M181.728,228.868l-3.209,0l0,9.59l-2.275,0l0,-9.59l-3.194,0l0,-1.752l8.678,0l0,1.752Z" style="fill:#fff;fill-rule:nonzero;"/><rect x="183.824" y="227.116" width="2.275" height="11.342" style="fill:#fff;fill-rule:nonzero;"/><path d="M198.174,233.807c0,1.392 -0.441,2.542 -1.321,3.451c-0.88,0.909 -2.024,1.363 -3.431,1.363c-1.397,0 -2.532,-0.454 -3.404,-1.363c-0.873,-0.909 -1.309,-2.059 -1.309,-3.451l0,-2.041c0,-1.386 0.435,-2.535 1.305,-3.447c0.87,-0.911 2.003,-1.367 3.4,-1.367c1.407,0 2.552,0.456 3.435,1.367c0.883,0.912 1.325,2.061 1.325,3.447l0,2.041Zm-2.275,-2.056c0,-0.883 -0.221,-1.608 -0.662,-2.174c-0.442,-0.566 -1.049,-0.849 -1.823,-0.849c-0.774,0 -1.374,0.282 -1.8,0.845c-0.425,0.564 -0.638,1.29 -0.638,2.178l0,2.056c0,0.899 0.215,1.631 0.646,2.197c0.431,0.566 1.031,0.849 1.8,0.849c0.779,0 1.386,-0.283 1.823,-0.849c0.436,-0.566 0.654,-1.298 0.654,-2.197l0,-2.056Z" style="fill:#fff;fill-rule:nonzero;"/><path d="M209.804,238.458l-2.266,0l-4.581,-7.751l-0.047,0.008l0,7.743l-2.274,0l0,-11.342l2.274,0l4.581,7.743l0.047,-0.008l0,-7.735l2.266,0l0,11.342Z" style="fill:#fff;fill-rule:nonzero;"/><path d="M219.551,236.713l5.047,0l0,1.745l-7.322,0l0,-11.342l2.275,0l0,9.597Z" style="fill:#fff;fill-rule:nonzero;"/><path d="M235.255,233.807c0,1.392 -0.44,2.542 -1.32,3.451c-0.88,0.909 -2.024,1.363 -3.431,1.363c-1.397,0 -2.532,-0.454 -3.405,-1.363c-0.872,-0.909 -1.308,-2.059 -1.308,-3.451l0,-2.041c0,-1.386 0.435,-2.535 1.305,-3.447c0.869,-0.911 2.003,-1.367 3.4,-1.367c1.407,0 2.552,0.456 3.435,1.367c0.883,0.912 1.324,2.061 1.324,3.447l0,2.041Zm-2.274,-2.056c0,-0.883 -0.221,-1.608 -0.662,-2.174c-0.442,-0.566 -1.049,-0.849 -1.823,-0.849c-0.774,0 -1.374,0.282 -1.8,0.845c-0.425,0.564 -0.638,1.29 -0.638,2.178l0,2.056c0,0.899 0.215,1.631 0.646,2.197c0.431,0.566 1.031,0.849 1.8,0.849c0.779,0 1.386,-0.283 1.822,-0.849c0.437,-0.566 0.655,-1.298 0.655,-2.197l0,-2.056Z" style="fill:#fff;fill-rule:nonzero;"/><path d="M246.886,238.458l-2.267,0l-4.58,-7.751l-0.047,0.008l0,7.743l-2.274,0l0,-11.342l2.274,0l4.581,7.743l0.046,-0.008l0,-7.735l2.267,0l0,11.342Z" style="fill:#fff;fill-rule:nonzero;"/><path d="M258.408,236.908c-0.338,0.446 -0.863,0.844 -1.577,1.192c-0.715,0.347 -1.617,0.521 -2.707,0.521c-1.387,0 -2.519,-0.431 -3.397,-1.293c-0.878,-0.862 -1.316,-1.981 -1.316,-3.357l0,-2.368c0,-1.371 0.422,-2.489 1.266,-3.354c0.843,-0.864 1.93,-1.297 3.26,-1.297c1.381,0 2.439,0.336 3.174,1.009c0.735,0.672 1.11,1.557 1.126,2.652l-0.016,0.047l-2.142,0c-0.042,-0.602 -0.234,-1.079 -0.577,-1.429c-0.342,-0.351 -0.844,-0.526 -1.503,-0.526c-0.696,0 -1.257,0.269 -1.683,0.806c-0.426,0.538 -0.638,1.23 -0.638,2.076l0,2.384c0,0.862 0.22,1.562 0.662,2.099c0.441,0.538 1.036,0.806 1.784,0.806c0.529,0 0.955,-0.054 1.277,-0.163c0.322,-0.109 0.566,-0.244 0.732,-0.405l0,-2.103l-2.009,0l0,-1.574l4.284,0l0,4.277Z" style="fill:#fff;fill-rule:nonzero;"/><path d="M270.023,227.116l0,7.525c0,1.272 -0.42,2.254 -1.262,2.944c-0.841,0.691 -1.942,1.036 -3.303,1.036c-1.355,0 -2.45,-0.345 -3.283,-1.036c-0.834,-0.69 -1.25,-1.672 -1.25,-2.944l0,-7.525l2.282,0l0,7.525c0,0.748 0.2,1.307 0.6,1.679c0.4,0.371 0.95,0.556 1.651,0.556c0.712,0 1.27,-0.184 1.675,-0.553c0.405,-0.368 0.608,-0.929 0.608,-1.682l0,-7.525l2.282,0Z" style="fill:#fff;fill-rule:nonzero;"/><path d="M279.668,233.472l-4.698,0l0,3.241l5.492,0l0,1.745l-7.766,0l0,-11.342l7.751,0l0,1.752l-5.477,0l0,2.852l4.698,0l0,1.752Z" style="fill:#fff;fill-rule:nonzero;"/><path d="M291.276,235.404c0,-0.613 0.169,-1.141 0.506,-1.585c0.338,-0.444 0.852,-0.908 1.543,-1.391c-0.353,-0.477 -0.617,-0.914 -0.791,-1.308c-0.174,-0.395 -0.261,-0.797 -0.261,-1.208c0,-0.898 0.281,-1.616 0.841,-2.154c0.561,-0.537 1.312,-0.806 2.252,-0.806c0.825,0 1.497,0.256 2.013,0.767c0.517,0.512 0.775,1.131 0.775,1.858c0,0.509 -0.127,0.974 -0.381,1.395c-0.255,0.42 -0.603,0.789 -1.044,1.106l-0.725,0.514l2.15,2.508c0.187,-0.311 0.333,-0.649 0.437,-1.012c0.104,-0.364 0.156,-0.748 0.156,-1.153l1.698,0c0,0.716 -0.089,1.376 -0.265,1.978c-0.177,0.603 -0.447,1.138 -0.81,1.605l1.62,1.901l-0.016,0.039l-2.523,0l-0.6,-0.693c-0.442,0.285 -0.896,0.499 -1.364,0.642c-0.467,0.143 -0.968,0.214 -1.503,0.214c-1.132,0 -2.033,-0.297 -2.703,-0.892c-0.67,-0.594 -1.005,-1.369 -1.005,-2.325Zm3.825,1.472c0.275,0 0.55,-0.035 0.826,-0.105c0.275,-0.07 0.54,-0.175 0.794,-0.315l-2.337,-2.711l-0.148,0.101c-0.265,0.25 -0.445,0.492 -0.541,0.729c-0.096,0.236 -0.144,0.473 -0.144,0.712c0,0.463 0.142,0.843 0.428,1.142c0.286,0.298 0.66,0.447 1.122,0.447Zm-0.795,-6.987c0,0.223 0.056,0.453 0.168,0.689c0.111,0.237 0.279,0.498 0.502,0.783l0.67,-0.436c0.291,-0.187 0.487,-0.379 0.588,-0.576c0.102,-0.198 0.152,-0.413 0.152,-0.647c0,-0.26 -0.095,-0.491 -0.284,-0.693c-0.19,-0.203 -0.438,-0.304 -0.744,-0.304c-0.338,0 -0.597,0.113 -0.779,0.339c-0.182,0.226 -0.273,0.507 -0.273,0.845Z" style="fill:#fff;fill-rule:nonzero;"/><path d="M319.376,233.745l-4.752,0l0,4.713l-2.275,0l0,-11.342l7.821,0l0,1.752l-5.546,0l0,3.124l4.752,0l0,1.753Z" style="fill:#fff;fill-rule:nonzero;"/><path d="M331.365,233.807c0,1.392 -0.44,2.542 -1.321,3.451c-0.88,0.909 -2.024,1.363 -3.431,1.363c-1.397,0 -2.532,-0.454 -3.404,-1.363c-0.873,-0.909 -1.309,-2.059 -1.309,-3.451l0,-2.041c0,-1.386 0.435,-2.535 1.305,-3.447c0.87,-0.911 2.003,-1.367 3.4,-1.367c1.408,0 2.553,0.456 3.436,1.367c0.882,0.912 1.324,2.061 1.324,3.447l0,2.041Zm-2.275,-2.056c0,-0.883 -0.221,-1.608 -0.662,-2.174c-0.441,-0.566 -1.049,-0.849 -1.823,-0.849c-0.774,0 -1.373,0.282 -1.799,0.845c-0.426,0.564 -0.639,1.29 -0.639,2.178l0,2.056c0,0.899 0.215,1.631 0.646,2.197c0.432,0.566 1.031,0.849 1.8,0.849c0.779,0 1.387,-0.283 1.823,-0.849c0.436,-0.566 0.654,-1.298 0.654,-2.197l0,-2.056Z" style="fill:#fff;fill-rule:nonzero;"/><path d="M336.102,233.924l0,4.534l-2.275,0l0,-11.342l4.277,0c1.293,0 2.304,0.294 3.034,0.884c0.729,0.589 1.094,1.411 1.094,2.465c0,0.587 -0.153,1.091 -0.459,1.512c-0.307,0.42 -0.756,0.76 -1.348,1.02c0.67,0.197 1.152,0.527 1.445,0.989c0.293,0.463 0.44,1.034 0.44,1.714l0,0.834c0,0.317 0.043,0.648 0.129,0.993c0.085,0.345 0.232,0.601 0.44,0.767l0,0.164l-2.345,0c-0.208,-0.166 -0.343,-0.444 -0.405,-0.834c-0.062,-0.389 -0.094,-0.758 -0.094,-1.106l0,-0.802c0,-0.566 -0.154,-1.006 -0.463,-1.321c-0.309,-0.314 -0.744,-0.471 -1.305,-0.471l-2.165,0Zm0,-1.753l1.963,0c0.638,0 1.115,-0.135 1.429,-0.405c0.314,-0.27 0.471,-0.67 0.471,-1.199c0,-0.52 -0.157,-0.933 -0.471,-1.239c-0.314,-0.306 -0.778,-0.46 -1.39,-0.46l-2.002,0l0,3.303Z" style="fill:#fff;fill-rule:nonzero;"/><path d="M348.028,227.116l2.89,8.358l0.047,0l2.914,-8.358l2.975,0l0,11.342l-2.274,0l0,-3.381l0.218,-5.009l-0.047,-0.008l-3.038,8.398l-1.527,0l-3.022,-8.367l-0.047,0.008l0.218,4.978l0,3.381l-2.275,0l0,-11.342l2.968,0Z" style="fill:#fff;fill-rule:nonzero;"/><path d="M365.751,236.012l-3.981,0l-0.771,2.446l-2.298,0l3.903,-11.342l2.329,0l3.887,11.342l-2.298,0l-0.771,-2.446Zm-3.42,-1.784l2.859,0l-1.402,-4.456l-0.047,0l-1.41,4.456Z" style="fill:#fff;fill-rule:nonzero;"/><path d="M378.402,228.868l-3.209,0l0,9.59l-2.275,0l0,-9.59l-3.194,0l0,-1.752l8.678,0l0,1.752Z" style="fill:#fff;fill-rule:nonzero;"/><rect x="380.498" y="227.116" width="2.275" height="11.342" style="fill:#fff;fill-rule:nonzero;"/><path d="M394.848,233.807c0,1.392 -0.441,2.542 -1.321,3.451c-0.88,0.909 -2.024,1.363 -3.431,1.363c-1.397,0 -2.532,-0.454 -3.404,-1.363c-0.873,-0.909 -1.309,-2.059 -1.309,-3.451l0,-2.041c0,-1.386 0.435,-2.535 1.305,-3.447c0.87,-0.911 2.003,-1.367 3.4,-1.367c1.407,0 2.552,0.456 3.435,1.367c0.883,0.912 1.325,2.061 1.325,3.447l0,2.041Zm-2.275,-2.056c0,-0.883 -0.221,-1.608 -0.662,-2.174c-0.442,-0.566 -1.049,-0.849 -1.823,-0.849c-0.774,0 -1.374,0.282 -1.8,0.845c-0.425,0.564 -0.638,1.29 -0.638,2.178l0,2.056c0,0.899 0.215,1.631 0.646,2.197c0.431,0.566 1.031,0.849 1.8,0.849c0.779,0 1.386,-0.283 1.823,-0.849c0.436,-0.566 0.654,-1.298 0.654,-2.197l0,-2.056Z" style="fill:#fff;fill-rule:nonzero;"/><path d="M406.478,238.458l-2.266,0l-4.581,-7.751l-0.047,0.008l0,7.743l-2.274,0l0,-11.342l2.274,0l4.581,7.743l0.047,-0.008l0,-7.735l2.266,0l0,11.342Z" style="fill:#fff;fill-rule:nonzero;"/><path d="M415.414,235.498c0,-0.437 -0.155,-0.787 -0.464,-1.052c-0.309,-0.265 -0.85,-0.514 -1.624,-0.748c-1.35,-0.389 -2.371,-0.851 -3.061,-1.386c-0.691,-0.535 -1.036,-1.268 -1.036,-2.197c0,-0.93 0.396,-1.689 1.188,-2.279c0.792,-0.589 1.803,-0.884 3.034,-0.884c1.246,0 2.261,0.331 3.046,0.993c0.784,0.663 1.163,1.479 1.137,2.45l-0.016,0.047l-2.204,0c0,-0.524 -0.175,-0.949 -0.526,-1.274c-0.35,-0.324 -0.843,-0.486 -1.476,-0.486c-0.608,0 -1.078,0.135 -1.41,0.405c-0.332,0.27 -0.499,0.615 -0.499,1.036c0,0.384 0.178,0.699 0.534,0.946c0.356,0.247 0.97,0.508 1.842,0.783c1.252,0.348 2.2,0.808 2.844,1.379c0.644,0.571 0.966,1.322 0.966,2.251c0,0.971 -0.383,1.737 -1.149,2.298c-0.766,0.561 -1.778,0.841 -3.035,0.841c-1.236,0 -2.313,-0.318 -3.232,-0.954c-0.92,-0.636 -1.366,-1.528 -1.34,-2.676l0.015,-0.046l2.213,0c0,0.675 0.206,1.169 0.619,1.484c0.413,0.314 0.988,0.471 1.725,0.471c0.618,0 1.091,-0.127 1.418,-0.382c0.327,-0.254 0.491,-0.594 0.491,-1.02Z" style="fill:#fff;fill-rule:nonzero;"/><path d="M433.316,234.602l0.016,0.047c0.02,1.22 -0.352,2.187 -1.118,2.901c-0.766,0.714 -1.83,1.071 -3.19,1.071c-1.366,0 -2.475,-0.438 -3.326,-1.316c-0.852,-0.878 -1.278,-2.007 -1.278,-3.389l0,-2.251c0,-1.376 0.415,-2.506 1.246,-3.389c0.831,-0.882 1.911,-1.324 3.241,-1.324c1.402,0 2.498,0.36 3.287,1.079c0.79,0.719 1.174,1.7 1.153,2.941l-0.015,0.046l-2.213,0c0,-0.747 -0.179,-1.32 -0.537,-1.717c-0.359,-0.397 -0.917,-0.596 -1.675,-0.596c-0.68,0 -1.22,0.276 -1.62,0.83c-0.4,0.553 -0.6,1.258 -0.6,2.114l0,2.267c0,0.868 0.21,1.578 0.631,2.131c0.42,0.553 0.989,0.829 1.706,0.829c0.711,0 1.237,-0.19 1.577,-0.572c0.34,-0.382 0.511,-0.949 0.511,-1.702l2.204,0Z" style="fill:#fff;fill-rule:nonzero;"/><path d="M444.76,233.807c0,1.392 -0.44,2.542 -1.32,3.451c-0.881,0.909 -2.025,1.363 -3.432,1.363c-1.397,0 -2.532,-0.454 -3.404,-1.363c-0.873,-0.909 -1.309,-2.059 -1.309,-3.451l0,-2.041c0,-1.386 0.435,-2.535 1.305,-3.447c0.87,-0.911 2.003,-1.367 3.4,-1.367c1.408,0 2.553,0.456 3.436,1.367c0.882,0.912 1.324,2.061 1.324,3.447l0,2.041Zm-2.275,-2.056c0,-0.883 -0.22,-1.608 -0.662,-2.174c-0.441,-0.566 -1.049,-0.849 -1.823,-0.849c-0.774,0 -1.373,0.282 -1.799,0.845c-0.426,0.564 -0.639,1.29 -0.639,2.178l0,2.056c0,0.899 0.216,1.631 0.647,2.197c0.431,0.566 1.03,0.849 1.799,0.849c0.779,0 1.387,-0.283 1.823,-0.849c0.436,-0.566 0.654,-1.298 0.654,-2.197l0,-2.056Z" style="fill:#fff;fill-rule:nonzero;"/><path d="M456.196,227.116l0,7.525c0,1.272 -0.421,2.254 -1.262,2.944c-0.841,0.691 -1.942,1.036 -3.303,1.036c-1.355,0 -2.45,-0.345 -3.283,-1.036c-0.834,-0.69 -1.251,-1.672 -1.251,-2.944l0,-7.525l2.283,0l0,7.525c0,0.748 0.2,1.307 0.6,1.679c0.399,0.371 0.95,0.556 1.651,0.556c0.712,0 1.27,-0.184 1.675,-0.553c0.405,-0.368 0.608,-0.929 0.608,-1.682l0,-7.525l2.282,0Z" style="fill:#fff;fill-rule:nonzero;"/><path d="M461.143,233.924l0,4.534l-2.275,0l0,-11.342l4.277,0c1.293,0 2.305,0.294 3.034,0.884c0.73,0.589 1.095,1.411 1.095,2.465c0,0.587 -0.154,1.091 -0.46,1.512c-0.306,0.42 -0.756,0.76 -1.348,1.02c0.67,0.197 1.152,0.527 1.445,0.989c0.294,0.463 0.441,1.034 0.441,1.714l0,0.834c0,0.317 0.042,0.648 0.128,0.993c0.086,0.345 0.232,0.601 0.44,0.767l0,0.164l-2.345,0c-0.207,-0.166 -0.342,-0.444 -0.405,-0.834c-0.062,-0.389 -0.093,-0.758 -0.093,-1.106l0,-0.802c0,-0.566 -0.155,-1.006 -0.464,-1.321c-0.309,-0.314 -0.744,-0.471 -1.304,-0.471l-2.166,0Zm0,-1.753l1.963,0c0.639,0 1.115,-0.135 1.43,-0.405c0.314,-0.27 0.471,-0.67 0.471,-1.199c0,-0.52 -0.157,-0.933 -0.471,-1.239c-0.315,-0.306 -0.778,-0.46 -1.391,-0.46l-2.002,0l0,3.303Z" style="fill:#fff;fill-rule:nonzero;"/><path d="M477.697,228.868l-3.209,0l0,9.59l-2.275,0l0,-9.59l-3.194,0l0,-1.752l8.678,0l0,1.752Z" style="fill:#fff;fill-rule:nonzero;"/><path d="M486.625,233.472l-4.698,0l0,3.241l5.492,0l0,1.745l-7.766,0l0,-11.342l7.751,0l0,1.752l-5.477,0l0,2.852l4.698,0l0,1.752Z" style="fill:#fff;fill-rule:nonzero;"/><path d="M495.623,235.498c0,-0.437 -0.155,-0.787 -0.464,-1.052c-0.309,-0.265 -0.85,-0.514 -1.624,-0.748c-1.35,-0.389 -2.371,-0.851 -3.062,-1.386c-0.69,-0.535 -1.036,-1.268 -1.036,-2.197c0,-0.93 0.396,-1.689 1.188,-2.279c0.792,-0.589 1.804,-0.884 3.035,-0.884c1.246,0 2.261,0.331 3.045,0.993c0.785,0.663 1.164,1.479 1.138,2.45l-0.016,0.047l-2.204,0c0,-0.524 -0.176,-0.949 -0.526,-1.274c-0.351,-0.324 -0.843,-0.486 -1.476,-0.486c-0.608,0 -1.078,0.135 -1.41,0.405c-0.333,0.27 -0.499,0.615 -0.499,1.036c0,0.384 0.178,0.699 0.534,0.946c0.355,0.247 0.969,0.508 1.842,0.783c1.252,0.348 2.199,0.808 2.843,1.379c0.644,0.571 0.966,1.322 0.966,2.251c0,0.971 -0.383,1.737 -1.149,2.298c-0.766,0.561 -1.777,0.841 -3.034,0.841c-1.236,0 -2.314,-0.318 -3.233,-0.954c-0.919,-0.636 -1.366,-1.528 -1.34,-2.676l0.016,-0.046l2.212,0c0,0.675 0.207,1.169 0.62,1.484c0.412,0.314 0.988,0.471 1.725,0.471c0.618,0 1.091,-0.127 1.418,-0.382c0.327,-0.254 0.491,-0.594 0.491,-1.02Z" style="fill:#fff;fill-rule:nonzero;"/><rect x="116.368" y="7.76" width="1.785" height="138.574" style="fill:#69e202;"/><g><path d="M60.192,31.768c-3.793,-1.488 -7.902,-2.233 -12.328,-2.233c-9.112,0 -16.922,3.238 -23.43,9.715c-6.471,6.476 -9.707,14.293 -9.707,23.449c0,9.119 3.236,16.936 9.707,23.449c5.653,5.62 12.328,8.803 20.027,9.547c-11.752,-0.744 -21.905,-5.378 -30.459,-13.902c-2.864,-2.903 -5.3,-5.974 -7.308,-9.212c-4.463,-7.333 -6.694,-15.558 -6.694,-24.677c0,-9.12 2.231,-17.327 6.694,-24.622c2.008,-3.275 4.444,-6.365 7.308,-9.268c9.372,-9.343 20.66,-14.014 33.862,-14.014c6.694,0 12.867,1.172 18.52,3.517l-6.192,28.251Z" style="fill:none;"/><clipPath id="_clip1"><path d="M60.192,31.768c-3.793,-1.488 -7.902,-2.233 -12.328,-2.233c-9.112,0 -16.922,3.238 -23.43,9.715c-6.471,6.476 -9.707,14.293 -9.707,23.449c0,9.119 3.236,16.936 9.707,23.449c5.653,5.62 12.328,8.803 20.027,9.547c-11.752,-0.744 -21.905,-5.378 -30.459,-13.902c-2.864,-2.903 -5.3,-5.974 -7.308,-9.212c-4.463,-7.333 -6.694,-15.558 -6.694,-24.677c0,-9.12 2.231,-17.327 6.694,-24.622c2.008,-3.275 4.444,-6.365 7.308,-9.268c9.372,-9.343 20.66,-14.014 33.862,-14.014c6.694,0 12.867,1.172 18.52,3.517l-6.192,28.251Z"/></clipPath><g clip-path="url(#_clip1)"><path d="M101.034,36.93l-64.433,66.93l-56.61,-54.589l64.433,-66.93l56.61,54.589Z" style="fill:url(#_Linear2);fill-rule:nonzero;"/></g><path d="M52.159,61.806c5.579,2.345 10.692,5.843 15.341,10.496c9.372,9.38 14.058,20.677 14.058,33.89c0,13.213 -4.686,24.51 -14.058,33.89c-0.781,0.781 -1.562,1.526 -2.343,2.233c-6.285,5.583 -13.369,9.174 -21.254,10.775l-1.618,0c5.504,-1.451 10.432,-4.335 14.783,-8.653c0.67,-0.707 1.32,-1.415 1.953,-2.122c5.169,-6.067 7.754,-13.176 7.754,-21.328c0,-9.156 -3.236,-16.973 -9.707,-23.449c-3.31,-3.387 -6.992,-5.881 -11.045,-7.481l6.136,-28.251Z" style="fill:#69e202;"/></g><g><path d="M130.449,126.12l0,-2.14c0,-13.105 3.902,-18.293 11.331,-18.293l0.32,0c6.895,0 9.995,3.851 9.995,13.479l2.244,0l0,-1.337c0,-9.093 -3.955,-14.175 -12.506,-14.175c-9.085,0 -13.628,5.884 -13.628,20.326l0,2.14c0,14.442 4.543,20.326 13.628,20.326c8.551,0 12.506,-5.082 12.506,-13.372l0,-0.535l-2.244,0c0,7.756 -2.993,11.874 -9.995,11.874l-0.32,0c-7.536,0 -11.331,-5.188 -11.331,-18.293Z" style="fill:#69e202;fill-rule:nonzero;"/><path d="M171.709,146.446c8.07,0 11.491,-6.419 11.491,-14.175l0,-1.07c0,-7.756 -3.421,-14.174 -11.491,-14.174c-8.07,0 -11.491,6.418 -11.491,14.174l0,1.07c0,7.756 3.421,14.175 11.491,14.175Zm0,-2.033c-6.36,0 -9.246,-4.921 -9.246,-12.142l0,-1.07c0,-7.221 2.886,-12.142 9.246,-12.142c6.36,0 9.246,4.921 9.246,12.142l0,1.07c0,7.221 -2.886,12.142 -9.246,12.142Z" style="fill:#69e202;fill-rule:nonzero;"/><rect x="190.415" y="103.119" width="2.138" height="42.792" style="fill:#69e202;fill-rule:nonzero;"/><rect x="201.104" y="103.119" width="2.138" height="42.792" style="fill:#69e202;fill-rule:nonzero;"/><path d="M233.438,132.753l0,-1.552c0,-7.756 -3.42,-14.174 -11.491,-14.174c-8.07,0 -11.49,6.418 -11.49,14.174l0,1.07c0,7.756 3.474,14.175 11.758,14.175c7.91,0 11.223,-5.349 11.223,-9.414l0,-0.214l-2.138,0c0,3.477 -2.512,7.595 -9.085,7.595c-6.574,0 -9.407,-4.707 -9.514,-11.66l20.737,0Zm-11.491,-13.694c6.2,0 9.086,4.707 9.246,11.661l-18.492,0c0.107,-6.954 2.993,-11.661 9.246,-11.661Zm-5.932,-14.87l4.81,8.558l2.245,0l-4.81,-8.558l-2.245,0Z" style="fill:#69e202;fill-rule:nonzero;"/><path d="M258.557,146.178c0,5.617 -2.137,8.933 -8.284,8.933c-5.932,0 -8.284,-2.942 -8.284,-9.2l-2.137,0l0,0.535c0,5.884 2.672,10.698 10.421,10.698c7.75,0 10.422,-4.814 10.422,-10.698l0,-20.861l0.267,-8.023l-1.603,0l-0.534,4.011c-1.39,-2.407 -4.062,-4.546 -8.552,-4.546c-7.749,0 -10.956,6.151 -10.956,13.105l0,1.069c0,6.954 3.207,13.105 10.956,13.105c4.169,0 6.788,-1.818 8.284,-4.011l0,5.883Zm0,-22.198l0,13.373c-1.336,2.139 -3.687,4.921 -8.016,4.921c-6.04,0 -8.979,-4.493 -8.979,-11.073l0,-1.069c0,-6.58 2.939,-11.073 8.979,-11.073c4.329,0 6.68,2.782 8.016,4.921Z" style="fill:#69e202;fill-rule:nonzero;"/><path d="M290.357,132.753l0,-1.552c0,-7.756 -3.42,-14.174 -11.491,-14.174c-8.07,0 -11.49,6.418 -11.49,14.174l0,1.07c0,7.756 3.474,14.175 11.758,14.175c7.91,0 11.223,-5.349 11.223,-9.414l0,-0.214l-2.138,0c0,3.477 -2.512,7.595 -9.085,7.595c-6.574,0 -9.407,-4.707 -9.514,-11.66l20.737,0Zm-11.491,-13.694c6.2,0 9.086,4.707 9.246,11.661l-18.492,0c0.107,-6.954 2.993,-11.661 9.246,-11.661Z" style="fill:#69e202;fill-rule:nonzero;"/></g><g><path d="M149.329,30.61c-0.236,3.609 -1.208,6.258 -2.915,7.945c-1.708,1.687 -4.071,2.53 -7.088,2.53c-1.546,0 -2.941,-0.302 -4.185,-0.906c-1.244,-0.604 -2.3,-1.473 -3.169,-2.608c-0.868,-1.134 -1.538,-2.515 -2.009,-4.144c-0.471,-1.628 -0.707,-3.466 -0.707,-5.513l0,-6.918c0,-2.018 0.236,-3.83 0.707,-5.436c0.471,-1.606 1.148,-2.965 2.032,-4.078c0.883,-1.112 1.957,-1.967 3.223,-2.563c1.266,-0.597 2.702,-0.895 4.306,-0.895c1.458,0 2.764,0.206 3.92,0.619c1.155,0.412 2.153,1.046 2.992,1.9c0.839,0.855 1.501,1.945 1.987,3.271c0.486,1.326 0.788,2.902 0.906,4.729l-2.562,0c-0.118,-1.473 -0.346,-2.725 -0.684,-3.757c-0.339,-1.031 -0.806,-1.871 -1.403,-2.519c-0.596,-0.648 -1.321,-1.12 -2.175,-1.415c-0.853,-0.294 -1.847,-0.441 -2.981,-0.441c-1.251,0 -2.355,0.239 -3.312,0.718c-0.957,0.479 -1.763,1.167 -2.418,2.066c-0.655,0.899 -1.148,2.004 -1.479,3.315c-0.331,1.311 -0.497,2.792 -0.497,4.442l0,6.962c0,1.635 0.158,3.119 0.475,4.453c0.316,1.333 0.787,2.471 1.413,3.414c0.626,0.943 1.406,1.672 2.341,2.188c0.934,0.516 2.027,0.774 3.279,0.774c1.177,0 2.208,-0.137 3.091,-0.409c0.883,-0.273 1.627,-0.726 2.23,-1.359c0.604,-0.634 1.079,-1.47 1.424,-2.509c0.346,-1.039 0.578,-2.324 0.696,-3.856l2.562,0Z" style="fill:#fff;fill-rule:nonzero;"/><path d="M167.722,40.643c-0.117,-0.398 -0.213,-0.895 -0.287,-1.492c-0.073,-0.596 -0.125,-1.204 -0.154,-1.823c-0.309,0.501 -0.677,0.976 -1.104,1.426c-0.427,0.449 -0.917,0.847 -1.469,1.193c-0.552,0.346 -1.166,0.622 -1.844,0.829c-0.677,0.206 -1.405,0.309 -2.186,0.309c-0.986,0 -1.88,-0.14 -2.683,-0.42c-0.802,-0.28 -1.49,-0.7 -2.064,-1.26c-0.574,-0.559 -1.016,-1.259 -1.325,-2.099c-0.309,-0.84 -0.464,-1.82 -0.464,-2.939c0,-1.105 0.192,-2.126 0.574,-3.061c0.383,-0.936 0.954,-1.742 1.712,-2.42c0.758,-0.678 1.704,-1.208 2.837,-1.591c1.134,-0.383 2.451,-0.575 3.953,-0.575l4.041,0l0,-3.337c0,-1.709 -0.424,-2.935 -1.27,-3.68c-0.847,-0.744 -2.087,-1.116 -3.721,-1.116c-0.765,0 -1.468,0.118 -2.109,0.354c-0.64,0.236 -1.188,0.564 -1.645,0.983c-0.456,0.42 -0.809,0.921 -1.06,1.503c-0.25,0.582 -0.375,1.219 -0.375,1.912l-2.451,-0.022c0,-0.928 0.184,-1.816 0.552,-2.663c0.368,-0.847 0.891,-1.595 1.568,-2.243c0.677,-0.649 1.494,-1.164 2.451,-1.547c0.957,-0.383 2.017,-0.575 3.18,-0.575c1.074,0 2.057,0.129 2.948,0.387c0.89,0.258 1.659,0.67 2.307,1.237c0.648,0.568 1.152,1.304 1.513,2.21c0.36,0.906 0.541,2.008 0.541,3.304l0,12.199c0,0.413 0.014,0.84 0.044,1.282c0.029,0.442 0.07,0.873 0.121,1.293c0.052,0.42 0.118,0.818 0.199,1.193c0.081,0.376 0.173,0.704 0.276,0.984l0,0.265l-2.606,0Zm-6.734,-1.923c0.765,0 1.483,-0.106 2.152,-0.32c0.67,-0.214 1.27,-0.508 1.8,-0.884c0.53,-0.376 0.99,-0.814 1.38,-1.315c0.39,-0.501 0.703,-1.039 0.939,-1.613l0,-5.813l-3.688,0c-2.311,0 -4.048,0.487 -5.211,1.459c-1.163,0.972 -1.745,2.284 -1.745,3.934c0,1.576 0.387,2.729 1.16,3.458c0.773,0.73 1.843,1.094 3.213,1.094Z" style="fill:#fff;fill-rule:nonzero;"/><rect x="176.643" y="6.698" width="2.473" height="33.945" style="fill:#fff;fill-rule:nonzero;"/><rect x="186.16" y="6.698" width="2.473" height="33.945" style="fill:#fff;fill-rule:nonzero;"/><path d="M208.043,40.643c-0.118,-0.398 -0.213,-0.895 -0.287,-1.492c-0.074,-0.596 -0.125,-1.204 -0.155,-1.823c-0.309,0.501 -0.677,0.976 -1.104,1.426c-0.427,0.449 -0.916,0.847 -1.468,1.193c-0.552,0.346 -1.167,0.622 -1.844,0.829c-0.677,0.206 -1.406,0.309 -2.186,0.309c-0.986,0 -1.881,-0.14 -2.683,-0.42c-0.802,-0.28 -1.49,-0.7 -2.064,-1.26c-0.575,-0.559 -1.016,-1.259 -1.325,-2.099c-0.309,-0.84 -0.464,-1.82 -0.464,-2.939c0,-1.105 0.191,-2.126 0.574,-3.061c0.383,-0.936 0.953,-1.742 1.711,-2.42c0.759,-0.678 1.704,-1.208 2.838,-1.591c1.133,-0.383 2.451,-0.575 3.952,-0.575l4.041,0l0,-3.337c0,-1.709 -0.423,-2.935 -1.269,-3.68c-0.847,-0.744 -2.087,-1.116 -3.721,-1.116c-0.766,0 -1.468,0.118 -2.109,0.354c-0.64,0.236 -1.189,0.564 -1.645,0.983c-0.456,0.42 -0.81,0.921 -1.06,1.503c-0.25,0.582 -0.375,1.219 -0.375,1.912l-2.451,-0.022c0,-0.928 0.184,-1.816 0.552,-2.663c0.368,-0.847 0.89,-1.595 1.568,-2.243c0.677,-0.649 1.494,-1.164 2.451,-1.547c0.957,-0.383 2.016,-0.575 3.179,-0.575c1.075,0 2.058,0.129 2.948,0.387c0.891,0.258 1.66,0.67 2.308,1.237c0.647,0.568 1.152,1.304 1.512,2.21c0.361,0.906 0.541,2.008 0.541,3.304l0,12.199c0,0.413 0.015,0.84 0.044,1.282c0.03,0.442 0.07,0.873 0.122,1.293c0.051,0.42 0.118,0.818 0.199,1.193c0.081,0.376 0.173,0.704 0.276,0.984l0,0.265l-2.606,0Zm-6.735,-1.923c0.766,0 1.483,-0.106 2.153,-0.32c0.67,-0.214 1.27,-0.508 1.8,-0.884c0.53,-0.376 0.99,-0.814 1.38,-1.315c0.39,-0.501 0.703,-1.039 0.938,-1.613l0,-5.813l-3.687,0c-2.311,0 -4.048,0.487 -5.211,1.459c-1.163,0.972 -1.745,2.284 -1.745,3.934c0,1.576 0.387,2.729 1.159,3.458c0.773,0.73 1.844,1.094 3.213,1.094Z" style="fill:#fff;fill-rule:nonzero;"/><path d="M224.251,38.809c0.677,0 1.332,-0.089 1.965,-0.265c0.633,-0.177 1.196,-0.479 1.689,-0.906c0.493,-0.428 0.898,-0.999 1.215,-1.713c0.316,-0.715 0.497,-1.61 0.541,-2.685l2.363,0c-0.059,1.281 -0.302,2.412 -0.729,3.392c-0.427,0.98 -0.994,1.797 -1.7,2.453c-0.707,0.656 -1.517,1.153 -2.429,1.492c-0.913,0.339 -1.885,0.508 -2.915,0.508c-2.871,0 -5.031,-0.928 -6.481,-2.784c-1.45,-1.857 -2.175,-4.612 -2.175,-8.266l0,-2.696c0,-3.654 0.725,-6.409 2.175,-8.265c1.45,-1.857 3.603,-2.785 6.459,-2.785c1.089,0 2.101,0.173 3.036,0.519c0.935,0.347 1.744,0.87 2.429,1.569c0.684,0.7 1.233,1.584 1.645,2.652c0.412,1.069 0.64,2.325 0.685,3.769l-2.363,0c-0.044,-1.105 -0.214,-2.052 -0.508,-2.84c-0.294,-0.789 -0.681,-1.433 -1.159,-1.934c-0.479,-0.501 -1.038,-0.866 -1.679,-1.094c-0.64,-0.228 -1.335,-0.343 -2.086,-0.343c-1.134,0 -2.091,0.196 -2.871,0.586c-0.78,0.391 -1.413,0.961 -1.899,1.713c-0.486,0.751 -0.839,1.668 -1.06,2.751c-0.221,1.083 -0.331,2.317 -0.331,3.702l0,2.696c0,1.4 0.107,2.645 0.32,3.735c0.214,1.09 0.563,2.007 1.049,2.751c0.486,0.744 1.123,1.312 1.91,1.702c0.788,0.391 1.756,0.586 2.904,0.586Z" style="fill:#fff;fill-rule:nonzero;"/><path d="M145.155,80.345c0,-0.884 -0.114,-1.668 -0.342,-2.353c-0.228,-0.685 -0.618,-1.308 -1.17,-1.868c-0.553,-0.56 -1.292,-1.075 -2.22,-1.547c-0.927,-0.471 -2.083,-0.943 -3.466,-1.414c-1.355,-0.457 -2.573,-0.954 -3.655,-1.492c-1.082,-0.538 -2.006,-1.164 -2.771,-1.878c-0.766,-0.715 -1.354,-1.547 -1.767,-2.498c-0.412,-0.95 -0.618,-2.059 -0.618,-3.326c0,-1.237 0.225,-2.368 0.674,-3.392c0.449,-1.024 1.074,-1.901 1.876,-2.63c0.803,-0.729 1.76,-1.296 2.871,-1.702c1.111,-0.405 2.337,-0.607 3.677,-0.607c1.442,0 2.738,0.25 3.886,0.751c1.148,0.501 2.127,1.186 2.937,2.055c0.809,0.87 1.428,1.89 1.855,3.061c0.427,1.172 0.64,2.428 0.64,3.768l-2.539,0c0,-1.046 -0.151,-2.011 -0.453,-2.895c-0.302,-0.884 -0.74,-1.65 -1.314,-2.298c-0.574,-0.648 -1.281,-1.153 -2.12,-1.514c-0.839,-0.361 -1.803,-0.541 -2.892,-0.541c-1.09,0 -2.043,0.154 -2.86,0.464c-0.817,0.309 -1.498,0.733 -2.042,1.27c-0.545,0.538 -0.957,1.164 -1.237,1.879c-0.28,0.714 -0.42,1.477 -0.42,2.287c0,0.766 0.122,1.47 0.365,2.111c0.243,0.641 0.644,1.234 1.203,1.779c0.56,0.545 1.292,1.057 2.197,1.536c0.906,0.479 2.013,0.932 3.324,1.359c1.442,0.471 2.719,0.991 3.831,1.558c1.111,0.567 2.046,1.226 2.804,1.978c0.758,0.751 1.332,1.624 1.722,2.619c0.391,0.994 0.586,2.14 0.586,3.436c0,1.311 -0.232,2.486 -0.696,3.525c-0.464,1.039 -1.108,1.919 -1.932,2.641c-0.825,0.722 -1.803,1.274 -2.937,1.658c-1.133,0.383 -2.377,0.574 -3.732,0.574c-1.207,0 -2.414,-0.184 -3.621,-0.552c-1.207,-0.369 -2.289,-0.94 -3.246,-1.713c-0.957,-0.774 -1.737,-1.768 -2.341,-2.984c-0.603,-1.215 -0.905,-2.677 -0.905,-4.386l2.517,0c0,1.355 0.225,2.497 0.674,3.425c0.449,0.928 1.034,1.68 1.755,2.254c0.722,0.575 1.535,0.987 2.44,1.238c0.906,0.25 1.815,0.376 2.727,0.376c1.031,0 1.962,-0.144 2.794,-0.431c0.831,-0.288 1.538,-0.693 2.119,-1.216c0.582,-0.523 1.031,-1.153 1.347,-1.889c0.317,-0.737 0.475,-1.562 0.475,-2.476Z" style="fill:#fff;fill-rule:nonzero;"/><path d="M151.978,75.086c0,-1.813 0.214,-3.411 0.641,-4.796c0.427,-1.385 1.023,-2.553 1.788,-3.503c0.766,-0.95 1.682,-1.668 2.749,-2.155c1.068,-0.486 2.249,-0.729 3.544,-0.729c1.311,0 2.503,0.243 3.578,0.729c1.074,0.487 1.994,1.205 2.76,2.155c0.765,0.95 1.358,2.118 1.777,3.503c0.42,1.385 0.63,2.983 0.63,4.796l0,2.475c0,1.812 -0.21,3.411 -0.63,4.795c-0.419,1.385 -1.012,2.546 -1.777,3.481c-0.766,0.936 -1.682,1.647 -2.749,2.133c-1.068,0.486 -2.249,0.729 -3.544,0.729c-1.311,0 -2.503,-0.243 -3.578,-0.729c-1.074,-0.486 -1.994,-1.197 -2.76,-2.133c-0.765,-0.935 -1.361,-2.096 -1.788,-3.481c-0.427,-1.384 -0.641,-2.983 -0.641,-4.795l0,-2.475Zm2.473,2.475c0,1.37 0.14,2.6 0.42,3.69c0.28,1.091 0.688,2.019 1.225,2.785c0.538,0.766 1.197,1.356 1.977,1.768c0.78,0.413 1.671,0.619 2.672,0.619c1.06,0 1.98,-0.206 2.76,-0.619c0.78,-0.412 1.428,-1.002 1.943,-1.768c0.515,-0.766 0.902,-1.694 1.159,-2.785c0.258,-1.09 0.387,-2.32 0.387,-3.69l0,-2.475c0,-1.341 -0.14,-2.56 -0.42,-3.658c-0.28,-1.098 -0.688,-2.033 -1.225,-2.807c-0.538,-0.773 -1.196,-1.37 -1.977,-1.79c-0.78,-0.42 -1.671,-0.63 -2.672,-0.63c-0.986,0 -1.865,0.21 -2.638,0.63c-0.773,0.42 -1.428,1.017 -1.966,1.79c-0.537,0.774 -0.945,1.709 -1.225,2.807c-0.28,1.098 -0.42,2.317 -0.42,3.658l0,2.475Z" style="fill:#fff;fill-rule:nonzero;"/><path d="M176.71,88.257l0,-21.702l-3.291,0l0,-2.21l3.291,0l0,-2.939c0,-2.446 0.537,-4.317 1.611,-5.614c1.075,-1.296 2.562,-1.944 4.461,-1.944c0.383,0 0.776,0.029 1.181,0.088c0.405,0.059 0.799,0.155 1.182,0.287l-0.177,2.255c-0.294,-0.074 -0.604,-0.133 -0.927,-0.177c-0.324,-0.044 -0.678,-0.067 -1.06,-0.067c-1.193,0 -2.124,0.446 -2.794,1.337c-0.669,0.892 -1.004,2.17 -1.004,3.835l0,2.939l4.681,0l0,2.21l-4.681,0l0,21.702l-2.473,0Z" style="fill:#fff;fill-rule:nonzero;"/><path d="M192.365,58.246l0,6.099l4.085,0l0,2.21l-4.085,0l0,15.89c0,0.825 0.07,1.492 0.21,2c0.14,0.508 0.328,0.902 0.563,1.182c0.236,0.28 0.504,0.468 0.806,0.564c0.302,0.096 0.622,0.143 0.961,0.143c0.323,0 0.64,-0.025 0.949,-0.077c0.309,-0.051 0.582,-0.099 0.817,-0.144l0.066,2.21c-0.265,0.118 -0.614,0.21 -1.048,0.277c-0.435,0.066 -0.887,0.099 -1.359,0.099c-0.633,0 -1.218,-0.103 -1.755,-0.309c-0.537,-0.207 -1.005,-0.553 -1.402,-1.039c-0.398,-0.486 -0.707,-1.131 -0.928,-1.934c-0.22,-0.803 -0.331,-1.801 -0.331,-2.994l0,-15.868l-3.687,0l0,-2.21l3.687,0l0,-6.099l2.451,0Z" style="fill:#fff;fill-rule:nonzero;"/></g></g><defs><linearGradient id="_Linear2" x1="0" y1="0" x2="1" y2="0" gradientUnits="userSpaceOnUse" gradientTransform="matrix(-38.3509,39.8372,-39.8041,-38.3829,56.8264,26.1872)"><stop offset="0%" style="stop-color:#0599ff;stop-opacity:1"/><stop offset="100%" style="stop-color:#025bbb;stop-opacity:1"/></linearGradient></defs></svg>